# xmcd
#
# Track frame offsets:
#	150
#	13945
#	31555
#	45732
#	59402
#	74027
#	84745
#	95627
#	115015
#
# Disc length: 1775
#
# Revision: 2
# Processed by: cddbd v1.5.1PL0 Copyright (c) Steve Scherf et al.
# Submitted via: audiograbber 1.83.01
# Normalized: r1:DSETVAR1
#
DISCID=7706ed09
DTITLE=Various Artist - MCA Records Canada CD Compilation #1
DYEAR=1994
DGENRE=Country
TTITLE0=Marty Stuart - Kiss Me, I'm Gone
TTITLE1=Trisha Yearwood - Better Your Heart than Mine
TTITLE2=Wyonna - Rock Bottom
TTITLE3=David Lee Murphy - Just Once
TTITLE4=The Mavericks - O What a Thrill
TTITLE5=George Jones - Never bit a Bullet Like this Before
TTITLE6=The Good Brothers - The Hockey Song
TTITLE7=Joel Feeney - By Heart
TTITLE8=Joan Kennedy - Circle of Love
EXTD=
EXTT0=
EXTT1=
EXTT2=
EXTT3=
EXTT4=
EXTT5=
EXTT6=
EXTT7=
EXTT8=
PLAYORDER=
